# xmcd
#
# Track frame offsets:
#	150
#	12239
#	26469
#	44845
#	62733
#	80787
#	98246
#	115452
#	135775
#	149876
#	181823
#	194919
#	206720
#	222514
#	240710
#	263772
#	282142
#	299699
#
# Disc length: 4266 seconds
#
# Revision: 0
# Processed by: cddbd v1.4PL0 Copyright (c) Steve Scherf et al.
# Submitted via: EasyCDDAExtractor 4.6.9.1
#
DISCID=2710a812
DTITLE=Alan Jackson - Greatest Hits - Vol II - CD 1
DYEAR=2003
DGENRE=Country
TTITLE0=Little Bitty
TTITLE1=Everything I Love
TTITLE2=Who's Cheatin' Who
TTITLE3=There Goes
TTITLE4=I'll Go On Loving You
TTITLE5=Right On The Money
TTITLE6=Gone Crazy
TTITLE7=Little Man
TTITLE8=Pop A Top
TTITLE9=The Blues Man
TTITLE10=It Must Be Love
TTITLE11=Www.Memory
TTITLE12=When Somebody Loves You
TTITLE13=Where I Come From
TTITLE14=Where Were You (When The World Stopped Turning)
TTITLE15=Drive (For Daddy Gene)
TTITLE16=It's Five O'Clock Somewhere (W-Jimmy-Buffett)
TTITLE17=Remember When
EXTD=
EXTT0=
EXTT1=
EXTT2=
EXTT3=
EXTT4=
EXTT5=
EXTT6=
EXTT7=
EXTT8=
EXTT9=
EXTT10=
EXTT11=
EXTT12=
EXTT13=
EXTT14=
EXTT15=
EXTT16=
EXTT17=
PLAYORDER=
